<svg width="76" height="30" viewBox="0 0 76 30" fill="none" xmlns="http://www.w3.org/2000/svg">
<path d="M0 19.5V0.619999H0.96V19.5H0ZM1.92 19.5V0.619999H2.88V19.5H1.92ZM3.84 19.5V0.619999H4.8V19.5H3.84ZM7.68 19.5V0.619999H10.56V19.5H7.68ZM11.52 19.5V0.619999H14.4V19.5H11.52ZM8 29.836C7.40267 29.836 6.89067 29.676 6.464 29.356C6.03733 29.0573 5.70667 28.62 5.472 28.044C5.23733 27.4893 5.12 26.8387 5.12 26.092C5.12 25.1107 5.26933 24.332 5.568 23.756C5.86667 23.18 6.22933 22.7747 6.656 22.54C7.08267 22.3267 7.50933 22.22 7.936 22.22C8.384 22.22 8.81067 22.3373 9.216 22.572C9.64267 22.7853 9.952 23.084 10.144 23.468L9.568 23.916L9.472 24.012L9.44 23.948C9.44 23.884 9.42933 23.82 9.408 23.756C9.36533 23.7133 9.30133 23.6387 9.216 23.532C9.024 23.3187 8.832 23.1693 8.64 23.084C8.448 22.9987 8.21333 22.956 7.936 22.956C7.36 22.956 6.88 23.18 6.496 23.628C6.13333 24.0973 5.952 24.8547 5.952 25.9C5.952 26.924 6.13333 27.7133 6.496 28.268C6.85867 28.8227 7.36 29.1 8 29.1C8.23467 29.1 8.48 29.0573 8.736 28.972C9.01333 28.908 9.23733 28.8013 9.408 28.652V26.892H8.064V26.156H10.176V29.068C9.472 29.58 8.74667 29.836 8 29.836ZM15.375 19.5V0.619999H18.255V19.5H15.375ZM19.215 19.5V0.619999H20.175V19.5H19.215ZM21.135 19.5V0.619999H22.095V19.5H21.135ZM24.975 19.5V0.619999H25.935V19.5H24.975ZM26.895 19.5V0.619999H29.775V19.5H26.895ZM24.239 27.532H21.839L21.103 29.708H20.271L22.991 22.156H23.087L25.839 29.708H24.975L24.239 27.532ZM24.015 26.892L23.055 24.076L22.063 26.892H24.015ZM30.75 19.5V0.619999H33.63V19.5H30.75ZM34.59 19.5V0.619999H37.47V19.5H34.59ZM38.43 19.5V0.619999H39.39V19.5H38.43ZM40.35 19.5V0.619999H41.31V19.5H40.35ZM44.19 19.5V0.619999H45.15V19.5H44.19ZM35.934 22.284H36.606L38.43 25.932L40.286 22.284H40.926V29.708H40.126V24.108L38.526 27.116H38.206L36.702 24.14V29.708H35.934V22.284ZM46.125 19.5V0.619999H47.085V19.5H46.125ZM49.965 19.5V0.619999H50.925V19.5H49.965ZM51.885 19.5V0.619999H54.765V19.5H51.885ZM55.725 19.5V0.619999H56.685V19.5H55.725ZM57.645 19.5V0.619999H60.525V19.5H57.645ZM53.325 25.932L51.341 22.284H52.237L53.805 25.1L55.341 22.284H56.173L54.285 25.9L56.397 29.708H55.469L53.805 26.764L52.205 29.708H51.309L53.325 25.932ZM61.5 19.5V0.619999H64.38V19.5H61.5ZM67.26 19.5V0.619999H68.22V19.5H67.26ZM69.18 19.5V0.619999H70.14V19.5H69.18ZM71.1 19.5V0.619999H72.06V19.5H71.1ZM73.02 19.5V0.619999H75.9V19.5H73.02ZM69.18 29.836C68.412 29.836 67.8253 29.6013 67.42 29.132C67.0147 28.6627 66.812 28.0013 66.812 27.148V22.284H67.74V22.38C67.676 22.4227 67.644 22.476 67.644 22.54C67.6227 22.5827 67.612 22.6787 67.612 22.828V27.148C67.612 27.788 67.74 28.2787 67.996 28.62C68.2307 28.9613 68.636 29.132 69.212 29.132C69.7667 29.132 70.172 28.9613 70.428 28.62C70.684 28.2787 70.812 27.7773 70.812 27.116V22.284H71.612V27.116C71.612 28.0333 71.3987 28.716 70.972 29.164C70.5453 29.612 69.948 29.836 69.18 29.836Z" fill="white"/>
</svg>
